<mxfile host="65bd71144e">
    <diagram id="7tf7FdOsbtwa7JwliZmB" name="Page-1">
        <mxGraphModel dx="1575" dy="997" grid="1" gridSize="10" guides="1" tooltips="1" connect="1" arrows="1" fold="1" page="1" pageScale="1" pageWidth="850" pageHeight="1100" math="0" shadow="0">
            <root>
                <mxCell id="0"/>
                <mxCell id="1" parent="0"/>
                <mxCell id="2" value="CommandProcessor" style="shape=umlLifeline;perimeter=lifelinePerimeter;whiteSpace=wrap;html=1;container=1;collapsible=0;recursiveResize=0;outlineConnect=0;" vertex="1" parent="1">
                    <mxGeometry x="340" y="150" width="120" height="410" as="geometry"/>
                </mxCell>
                <mxCell id="3" value="" style="html=1;points=[];perimeter=orthogonalPerimeter;" vertex="1" parent="2">
                    <mxGeometry x="50" y="80" width="20" height="310" as="geometry"/>
                </mxCell>
                <mxCell id="9" value="LookCommand" style="shape=umlLifeline;perimeter=lifelinePerimeter;whiteSpace=wrap;html=1;container=1;collapsible=0;recursiveResize=0;outlineConnect=0;" vertex="1" parent="1">
                    <mxGeometry x="510" y="150" width="130" height="410" as="geometry"/>
                </mxCell>
                <mxCell id="10" value="" style="html=1;points=[];perimeter=orthogonalPerimeter;" vertex="1" parent="9">
                    <mxGeometry x="53" y="110" width="20" height="50" as="geometry"/>
                </mxCell>
                <mxCell id="35" value="Execute with &quot;go&quot; and &quot;south&quot;" style="html=1;verticalAlign=bottom;endArrow=block;entryX=0;entryY=0;endSize=10;exitX=1.13;exitY=0.417;exitDx=0;exitDy=0;exitPerimeter=0;" edge="1" parent="9">
                    <mxGeometry relative="1" as="geometry">
                        <mxPoint x="-98.2600000000001" y="270" as="sourcePoint"/>
                        <mxPoint x="209.14" y="270.73" as="targetPoint"/>
                    </mxGeometry>
                </mxCell>
                <mxCell id="36" value="Return command output" style="html=1;verticalAlign=bottom;endArrow=open;dashed=1;endSize=8;exitX=-0.152;exitY=0.287;entryX=1.043;entryY=0.516;entryDx=0;entryDy=0;entryPerimeter=0;exitDx=0;exitDy=0;exitPerimeter=0;" edge="1" parent="9">
                    <mxGeometry x="0.02" y="-1" relative="1" as="geometry">
                        <mxPoint x="-99.99999999999989" y="300.6899999999998" as="targetPoint"/>
                        <mxPoint x="206.10000000000002" y="302.29999999999995" as="sourcePoint"/>
                        <mxPoint as="offset"/>
                    </mxGeometry>
                </mxCell>
                <mxCell id="11" value="MoveCommand" style="shape=umlLifeline;perimeter=lifelinePerimeter;whiteSpace=wrap;html=1;container=1;collapsible=0;recursiveResize=0;outlineConnect=0;" vertex="1" parent="1">
                    <mxGeometry x="680" y="150" width="100" height="410" as="geometry"/>
                </mxCell>
                <mxCell id="14" value="" style="html=1;points=[];perimeter=orthogonalPerimeter;" vertex="1" parent="11">
                    <mxGeometry x="40" y="210" width="20" height="110" as="geometry"/>
                </mxCell>
                <mxCell id="19" value="Are you &quot;go&quot;" style="html=1;verticalAlign=bottom;endArrow=block;entryX=0;entryY=0;endSize=10;" edge="1" parent="1" target="10">
                    <mxGeometry relative="1" as="geometry">
                        <mxPoint x="410" y="260" as="sourcePoint"/>
                    </mxGeometry>
                </mxCell>
                <mxCell id="20" value="False" style="html=1;verticalAlign=bottom;endArrow=open;dashed=1;endSize=8;exitX=0;exitY=0.95;entryX=1.13;entryY=0.25;entryDx=0;entryDy=0;entryPerimeter=0;" edge="1" parent="1" source="10" target="3">
                    <mxGeometry x="-0.0293" y="-8" relative="1" as="geometry">
                        <mxPoint x="400" y="356.53999999999996" as="targetPoint"/>
                        <mxPoint y="1" as="offset"/>
                    </mxGeometry>
                </mxCell>
                <mxCell id="24" value="Are you &quot;go&quot;" style="html=1;verticalAlign=bottom;endArrow=block;entryX=0;entryY=0;endSize=10;exitX=1.13;exitY=0.417;exitDx=0;exitDy=0;exitPerimeter=0;" edge="1" parent="1" source="3" target="14">
                    <mxGeometry relative="1" as="geometry">
                        <mxPoint x="830" y="450" as="sourcePoint"/>
                    </mxGeometry>
                </mxCell>
                <mxCell id="29" value="True" style="html=1;verticalAlign=bottom;endArrow=open;dashed=1;endSize=8;exitX=-0.152;exitY=0.287;entryX=1.043;entryY=0.516;entryDx=0;entryDy=0;entryPerimeter=0;exitDx=0;exitDy=0;exitPerimeter=0;" edge="1" parent="1" source="14" target="3">
                    <mxGeometry x="0.0257" y="-6" relative="1" as="geometry">
                        <mxPoint x="830" y="526" as="targetPoint"/>
                        <mxPoint as="offset"/>
                    </mxGeometry>
                </mxCell>
                <mxCell id="30" value="Console" style="shape=umlLifeline;perimeter=lifelinePerimeter;whiteSpace=wrap;html=1;container=1;collapsible=0;recursiveResize=0;outlineConnect=0;" vertex="1" parent="1">
                    <mxGeometry x="190" y="150" width="100" height="410" as="geometry"/>
                </mxCell>
                <mxCell id="31" value="" style="html=1;points=[];perimeter=orthogonalPerimeter;" vertex="1" parent="30">
                    <mxGeometry x="40" y="80" width="20" height="310" as="geometry"/>
                </mxCell>
                <mxCell id="32" value="Enter &quot;go south&quot;" style="html=1;verticalAlign=bottom;endArrow=block;entryX=0;entryY=0;endSize=10;" edge="1" parent="30" target="31">
                    <mxGeometry x="0.0033" relative="1" as="geometry">
                        <mxPoint x="-90" y="80" as="sourcePoint"/>
                        <mxPoint as="offset"/>
                    </mxGeometry>
                </mxCell>
                <mxCell id="33" value="Print command output" style="html=1;verticalAlign=bottom;endArrow=open;dashed=1;endSize=8;exitX=0;exitY=0.95;" edge="1" parent="30" source="31">
                    <mxGeometry x="-0.0767" y="-4" relative="1" as="geometry">
                        <mxPoint x="-90" y="374" as="targetPoint"/>
                        <mxPoint as="offset"/>
                    </mxGeometry>
                </mxCell>
                <mxCell id="4" value="pass array of string&lt;br&gt;&quot;go&quot; and &quot;south&quot;" style="html=1;verticalAlign=bottom;endArrow=block;entryX=-0.167;entryY=0.035;endSize=10;entryDx=0;entryDy=0;entryPerimeter=0;exitX=1.13;exitY=0.035;exitDx=0;exitDy=0;exitPerimeter=0;" edge="1" parent="1" target="3" source="31">
                    <mxGeometry relative="1" as="geometry">
                        <mxPoint x="250" y="230" as="sourcePoint"/>
                    </mxGeometry>
                </mxCell>
                <mxCell id="5" value="Return command output" style="html=1;verticalAlign=bottom;endArrow=open;dashed=1;endSize=8;exitX=-0.174;exitY=0.841;exitDx=0;exitDy=0;exitPerimeter=0;entryX=1.043;entryY=0.845;entryDx=0;entryDy=0;entryPerimeter=0;" edge="1" parent="1" source="3" target="31">
                    <mxGeometry relative="1" as="geometry">
                        <mxPoint x="250" y="524" as="targetPoint"/>
                    </mxGeometry>
                </mxCell>
            </root>
        </mxGraphModel>
    </diagram>
</mxfile>